<svg xmlns="http://www.w3.org/2000/svg" width="20" height="20" viewBox="0 0 20 20">
    <g fill="none" fill-rule="evenodd">
        <path d="M0 0L20 0 20 20 0 20z"/>
        <path fill="#6B58E1" fill-rule="nonzero" d="M18.333 14.168c0 2.348-1.634 4.38-3.927 4.884l-.532-1.595c.986-.163 1.847-.758 2.347-1.624h-2.054c-.92 0-1.667-.746-1.667-1.666v-3.334c0-.92.746-1.666 1.667-1.666h2.448c-.42-3.333-3.256-5.833-6.615-5.833-3.36 0-6.194 2.5-6.615 5.833h2.448c.92 0 1.667.746 1.667 1.666v3.334c0 .92-.746 1.666-1.667 1.666h-2.5c-.92 0-1.666-.746-1.666-1.666V10c0-4.603 3.73-8.333 8.333-8.333 4.602 0 8.333 3.73 8.333 8.333v4.168z"/>
    </g>
</svg>
