<svg xmlns="http://www.w3.org/2000/svg" width="20" height="20" viewBox="0 0 20 20">
    <g fill="none" fill-rule="evenodd">
        <path d="M0 0L20 0 20 20 0 20z"/>
        <g fill-rule="nonzero">
            <path fill="#1877F2" d="M18 9c0-4.97-4.03-9-9-9S0 4.03 0 9c0 4.492 3.291 8.215 7.594 8.89v-6.288H5.309V9h2.285V7.017c0-2.255 1.343-3.501 3.4-3.501.984 0 2.014.175 2.014.175v2.215h-1.135c-1.118 0-1.467.694-1.467 1.407V9h2.496l-.399 2.602h-2.097v6.289C14.71 17.215 18 13.492 18 9z" transform="translate(1 1)"/>
            <path fill="#FFF" d="M12.503 11.602l.4-2.602h-2.497V7.312c0-.711.349-1.406 1.467-1.406h1.135V3.691s-1.03-.175-2.015-.175c-2.056 0-3.4 1.246-3.4 3.501V9H5.31v2.602h2.285v6.289c.932.145 1.88.145 2.812 0V11.6h2.097z" transform="translate(1 1)"/>
        </g>
    </g>
</svg>
