<?xml version="1.0" encoding="UTF-8"?>
<svg width="25px" height="26px" viewBox="0 0 25 26" version="1.1" xmlns="http://www.w3.org/2000/svg" xmlns:xlink="http://www.w3.org/1999/xlink">
    <title>Group</title>
    <defs>
        <linearGradient x1="91.867%" y1="40.328%" x2="28.264%" y2="81.66%" id="linearGradient-1">
            <stop stop-color="#0052CC" offset="18%"></stop>
            <stop stop-color="#2684FF" offset="100%"></stop>
        </linearGradient>
        <linearGradient x1="8.71%" y1="59.166%" x2="72.243%" y2="17.99%" id="linearGradient-2">
            <stop stop-color="#0052CC" offset="18%"></stop>
            <stop stop-color="#2684FF" offset="100%"></stop>
        </linearGradient>
    </defs>
    <g id="Page-1" stroke="none" stroke-width="1" fill="none" fill-rule="evenodd">
        <g id="Group" fill-rule="nonzero">
            <path d="M24.473,12.234 L13.453,1.08 L12.386,0 L4.09,8.395 L0.297,12.234 C-0.098,12.634 -0.098,13.284 0.297,13.684 L7.877,21.354 L12.385,25.918 L20.681,17.523 L20.809,17.393 L24.473,13.684 C24.869,13.284 24.869,12.634 24.473,12.234 Z M12.385,16.79 L8.6,12.959 L12.386,9.127 L16.172,12.959 L12.386,16.791 L12.385,16.79 Z" id="Shape" fill="#2684FF"></path>
            <path d="M12.385,9.127 C9.907,6.618 9.895,2.555 12.358,0.031 L4.073,8.412 L8.583,12.976 L12.385,9.127 Z" id="Path" fill="url(#linearGradient-1)"></path>
            <path d="M16.181,12.949 L12.385,16.791 C13.5838648,18.0070021 14.2553559,19.6463888 14.254,21.354 C14.255619,23.0619574 13.5841082,24.7017514 12.385,25.918 L20.691,17.512 L16.181,12.949 L16.181,12.949 Z" id="Path" fill="url(#linearGradient-2)"></path>
        </g>
    </g>
</svg>