<svg xmlns="http://www.w3.org/2000/svg" width="20" height="20" viewBox="0 0 20 20">
    <g fill="none" fill-rule="evenodd">
        <path d="M0 0L20 0 20 20 0 20z"/>
        <path fill="#C2125F" fill-rule="nonzero" d="M2.18 13.377c-.114-.1-.18-.248-.18-.402V6.76c-.002-.156.063-.304.178-.406.115-.102.268-.147.418-.123l2.781.447 11.929-4.647c.158-.06.334-.036.473.063.138.098.22.26.221.432v14.655c0 .292-.231.53-.516.53-.063 0-.125-.012-.183-.035L7.216 13.753l1.032 2.998c.22.563.118 1.204-.263 1.667-.381.463-.98.673-1.558.545-.578-.127-1.04-.57-1.202-1.154l-1.51-4.504-1.119.18h-.08c-.12.006-.24-.033-.335-.108z"/>
    </g>
</svg>
