<svg xmlns="http://www.w3.org/2000/svg" xmlns:xlink="http://www.w3.org/1999/xlink" width="142" height="80" viewBox="0 0 142 80">
    <defs>
        <filter id="prefix__c" width="211.7%" height="320.5%" x="-55.8%" y="-110.3%" filterUnits="objectBoundingBox">
            <feOffset dx="2" dy="6" in="SourceAlpha" result="shadowOffsetOuter1"/>
            <feGaussianBlur in="shadowOffsetOuter1" result="shadowBlurOuter1" stdDeviation="8"/>
            <feColorMatrix in="shadowBlurOuter1" result="shadowMatrixOuter1" values="0 0 0 0 0.0916469214 0 0 0 0 0.105606069 0 0 0 0 0.119565217 0 0 0 0.1 0"/>
            <feMerge>
                <feMergeNode in="shadowMatrixOuter1"/>
                <feMergeNode in="SourceGraphic"/>
            </feMerge>
        </filter>
        <filter id="prefix__d" width="211.5%" height="325.6%" x="-55.7%" y="-112.8%" filterUnits="objectBoundingBox">
            <feOffset dx="2" dy="7" in="SourceAlpha" result="shadowOffsetOuter1"/>
            <feGaussianBlur in="shadowOffsetOuter1" result="shadowBlurOuter1" stdDeviation="9"/>
            <feColorMatrix in="shadowBlurOuter1" result="shadowMatrixOuter1" values="0 0 0 0 0.0916469214 0 0 0 0 0.105606069 0 0 0 0 0.119565217 0 0 0 0.1 0"/>
            <feMerge>
                <feMergeNode in="shadowMatrixOuter1"/>
                <feMergeNode in="SourceGraphic"/>
            </feMerge>
        </filter>
        <rect id="prefix__a" width="142" height="80" x="0" y="0" rx="8"/>
    </defs>
    <g fill="none" fill-rule="evenodd">
        <mask id="prefix__b" fill="#fff">
            <use xlink:href="#prefix__a"/>
        </mask>
        <use fill="#295CE0" xlink:href="#prefix__a"/>
        <g mask="url(#prefix__b)">
            <g>
                <g filter="url(#prefix__c)" transform="rotate(-5 233.778 -185.086) translate(27.935 10.561)">
                    <g opacity=".5">
                        <path fill="#FFF" stroke="#989DAD" stroke-width=".5" d="M64.349.25H4.576c-1.196 0-2.277.485-3.06 1.268C.735 2.303.25 3.388.25 4.585c0 1.195.485 2.28 1.268 3.064.783.784 1.864 1.27 3.058 1.27h59.773c1.206 0 2.294-.492 3.077-1.314.772-.81 1.244-1.94 1.243-3.23-.054-1.148-.557-2.182-1.336-2.927C66.557.706 65.506.25 64.349.25z"/>
                        <g>
                            <path fill="#EAEBEF" d="M.001.262c0-.127.097-.23.23-.23h21.313c.127 0 .23.107.23.23 0 .127-.097.23-.23.23H.231c-.127 0-.23-.107-.23-.23z" transform="translate(12.937 2.445)"/>
                            <path fill="#EAEBEF" d="M.001 1.637c0-.126.101-.229.23-.229h7.513c.127 0 .23.106.23.23 0 .126-.1.229-.23.229H.231c-.127 0-.23-.107-.23-.23z" opacity=".4" transform="translate(12.937 2.445)"/>
                            <path fill="#EAEBEF" d="M.096 3.82c0-.168.138-.305.311-.305H7.02c.172 0 .311.142.311.306 0 .168-.138.305-.31.305H.406c-.172 0-.31-.142-.31-.305zM12.02 3.818c0-.17.133-.306.306-.306h4.792c.17 0 .306.142.306.306 0 .169-.133.305-.306.305h-4.792c-.17 0-.306-.141-.306-.305zM21.755 3.82c0-.168.133-.305.306-.305h4.792c.17 0 .306.142.306.306 0 .168-.133.305-.306.305h-4.792c-.17 0-.306-.142-.306-.305zM33.255 3.82c0-.168.13-.305.31-.305h3.884c.171 0 .31.142.31.306 0 .168-.13.305-.31.305h-3.885c-.17 0-.31-.142-.31-.305zM42.953 3.82c0-.168.137-.305.308-.305h2.988c.17 0 .307.142.307.306 0 .168-.136.305-.307.305h-2.988c-.17 0-.308-.142-.308-.305zM50.992 3.789c0-.222.174-.402.408-.402h.084c.226 0 .409.186.409.402 0 .222-.174.402-.409.402H51.4c-.225 0-.408-.187-.408-.402z" transform="translate(12.937 2.445)"/>
                            <path fill="#D8D8D8" d="M52.709 3.789c0-.222.173-.402.408-.402h.084c.226 0 .409.186.409.402 0 .222-.174.402-.409.402h-.084c-.225 0-.408-.187-.408-.402z" transform="translate(12.937 2.445)"/>
                        </g>
                        <g>
                            <path fill="#EAEBEF" d="M0 3.717c0-.23.184-.416.416-.416H1.3c.23 0 .416.193.416.416 0 .23-.184.415-.416.415H.416C.186 4.132 0 3.94 0 3.717zM3.188 3.683c0-.23.184-.415.416-.415h.885c.23 0 .416.192.416.415 0 .23-.184.416-.416.416h-.885c-.23 0-.416-.193-.416-.416zM6.438 3.683c0-.23.184-.415.416-.415h.885c.23 0 .416.192.416.415 0 .23-.184.416-.416.416h-.885c-.23 0-.416-.193-.416-.416z" transform="translate(2.207 2.476)"/>
                            <path fill="#1975D1" d="M0 1.47c0-.153.116-.278.274-.278h7.674c.15 0 .273.13.273.278 0 .154-.116.279-.273.279H.274C.122 1.749 0 1.619 0 1.47z" transform="translate(2.207 2.476)"/>
                            <path fill="#EAEBEF" d="M0 .168C0 .075.081 0 .165 0H7.07c.091 0 .165.078.165.168 0 .093-.081.168-.165.168H.165C.074.336 0 .258 0 .168z" transform="translate(2.207 2.476)"/>
                        </g>
                    </g>
                    <g fill-rule="nonzero" transform="translate(65.581 1.378)">
                        <circle cx="3.249" cy="3.249" r="3.249" fill="#23B3B2"/>
                        <path fill="#FFF" d="M4.3 2.274H2.198c-.136 0-.248.115-.248.256v1.6c0 .14.112.256.248.256H4.3c.136 0 .247-.115.247-.256v-1.6c0-.14-.111-.256-.247-.256zm-.03.544l-1.021.704-1.021-.704v-.256l1.02.704 1.022-.704v.256z"/>
                    </g>
                    <g>
                        <g opacity=".5">
                            <path fill="#FFF" stroke="#989DAD" stroke-width=".5" d="M64.349.25H4.576c-1.196 0-2.277.485-3.06 1.268C.735 2.303.25 3.388.25 4.585c0 1.195.485 2.28 1.268 3.064.783.784 1.864 1.27 3.058 1.27h59.773c1.206 0 2.294-.492 3.077-1.314.772-.81 1.244-1.94 1.243-3.23-.054-1.148-.557-2.182-1.336-2.927C66.557.706 65.506.25 64.349.25z" transform="translate(0 28.102)"/>
                            <g>
                                <path fill="#EAEBEF" d="M.001.262c0-.127.097-.23.23-.23h21.313c.127 0 .23.107.23.23 0 .127-.097.23-.23.23H.231c-.127 0-.23-.107-.23-.23z" transform="translate(0 28.102) translate(12.937 2.445)"/>
                                <path fill="#EAEBEF" d="M.001 1.637c0-.126.101-.229.23-.229h7.513c.127 0 .23.106.23.23 0 .126-.1.229-.23.229H.231c-.127 0-.23-.107-.23-.23z" opacity=".4" transform="translate(0 28.102) translate(12.937 2.445)"/>
                                <path fill="#EAEBEF" d="M.096 3.82c0-.168.138-.305.311-.305H7.02c.172 0 .311.142.311.306 0 .168-.138.305-.31.305H.406c-.172 0-.31-.142-.31-.305zM12.02 3.818c0-.17.133-.306.306-.306h4.792c.17 0 .306.142.306.306 0 .169-.133.305-.306.305h-4.792c-.17 0-.306-.141-.306-.305zM21.755 3.82c0-.168.133-.305.306-.305h4.792c.17 0 .306.142.306.306 0 .168-.133.305-.306.305h-4.792c-.17 0-.306-.142-.306-.305zM33.255 3.82c0-.168.13-.305.31-.305h3.884c.171 0 .31.142.31.306 0 .168-.13.305-.31.305h-3.885c-.17 0-.31-.142-.31-.305zM42.953 3.82c0-.168.137-.305.308-.305h2.988c.17 0 .307.142.307.306 0 .168-.136.305-.307.305h-2.988c-.17 0-.308-.142-.308-.305zM50.992 3.789c0-.222.174-.402.408-.402h.084c.226 0 .409.186.409.402 0 .222-.174.402-.409.402H51.4c-.225 0-.408-.187-.408-.402z" transform="translate(0 28.102) translate(12.937 2.445)"/>
                                <path fill="#D8D8D8" d="M52.709 3.789c0-.222.173-.402.408-.402h.084c.226 0 .409.186.409.402 0 .222-.174.402-.409.402h-.084c-.225 0-.408-.187-.408-.402z" transform="translate(0 28.102) translate(12.937 2.445)"/>
                            </g>
                            <g>
                                <path fill="#EAEBEF" d="M0 3.717c0-.23.184-.416.416-.416H1.3c.23 0 .416.193.416.416 0 .23-.184.415-.416.415H.416C.186 4.132 0 3.94 0 3.717zM3.188 3.683c0-.23.184-.415.416-.415h.885c.23 0 .416.192.416.415 0 .23-.184.416-.416.416h-.885c-.23 0-.416-.193-.416-.416zM6.438 3.683c0-.23.184-.415.416-.415h.885c.23 0 .416.192.416.415 0 .23-.184.416-.416.416h-.885c-.23 0-.416-.193-.416-.416z" transform="translate(0 28.102) translate(2.207 2.476)"/>
                                <path fill="#83E1A7" d="M0 1.47c0-.153.116-.278.274-.278h7.674c.15 0 .273.13.273.278 0 .154-.116.279-.273.279H.274C.122 1.749 0 1.619 0 1.47z" transform="translate(0 28.102) translate(2.207 2.476)"/>
                                <path fill="#EAEBEF" d="M0 .168C0 .075.081 0 .165 0H7.07c.091 0 .165.078.165.168 0 .093-.081.168-.165.168H.165C.074.336 0 .258 0 .168z" transform="translate(0 28.102) translate(2.207 2.476)"/>
                            </g>
                        </g>
                        <g fill-rule="nonzero" transform="translate(0 28.102) translate(65.581 1.378)">
                            <circle cx="3.249" cy="3.249" r="3.249" fill="#3DB85E"/>
                            <path fill="#FFF" d="M4.223 4.145v.219c0 .146-.12.266-.268.266H2.624c-.148 0-.269-.12-.269-.266v-.219h1.868zm0-1.714v1.6H2.355v-1.6h1.868zm-.268-.563c.148 0 .268.12.268.266v.182H2.355v-.182c0-.147.121-.266.269-.266z"/>
                        </g>
                    </g>
                    <g>
                        <g opacity=".5">
                            <path fill="#FFF" stroke="#989DAD" stroke-width=".5" d="M64.349.25H4.576c-1.196 0-2.277.485-3.06 1.268C.735 2.303.25 3.388.25 4.585c0 1.195.485 2.28 1.268 3.064.783.784 1.864 1.27 3.058 1.27h59.773c1.206 0 2.294-.492 3.077-1.314.772-.81 1.244-1.94 1.243-3.23-.054-1.148-.557-2.182-1.336-2.927C66.557.706 65.506.25 64.349.25z" transform="translate(3.899 14.05)"/>
                            <g>
                                <path fill="#EAEBEF" d="M.001.262c0-.127.097-.23.23-.23h21.313c.127 0 .23.107.23.23 0 .127-.097.23-.23.23H.231c-.127 0-.23-.107-.23-.23z" transform="translate(3.899 14.05) translate(12.937 2.445)"/>
                                <path fill="#EAEBEF" d="M.001 1.637c0-.126.101-.229.23-.229h7.513c.127 0 .23.106.23.23 0 .126-.1.229-.23.229H.231c-.127 0-.23-.107-.23-.23z" opacity=".4" transform="translate(3.899 14.05) translate(12.937 2.445)"/>
                                <path fill="#EAEBEF" d="M.096 3.82c0-.168.138-.305.311-.305H7.02c.172 0 .311.142.311.306 0 .168-.138.305-.31.305H.406c-.172 0-.31-.142-.31-.305zM12.02 3.818c0-.17.133-.306.306-.306h4.792c.17 0 .306.142.306.306 0 .169-.133.305-.306.305h-4.792c-.17 0-.306-.141-.306-.305zM21.755 3.82c0-.168.133-.305.306-.305h4.792c.17 0 .306.142.306.306 0 .168-.133.305-.306.305h-4.792c-.17 0-.306-.142-.306-.305zM33.255 3.82c0-.168.13-.305.31-.305h3.884c.171 0 .31.142.31.306 0 .168-.13.305-.31.305h-3.885c-.17 0-.31-.142-.31-.305zM42.953 3.82c0-.168.137-.305.308-.305h2.988c.17 0 .307.142.307.306 0 .168-.136.305-.307.305h-2.988c-.17 0-.308-.142-.308-.305zM50.992 3.789c0-.222.174-.402.408-.402h.084c.226 0 .409.186.409.402 0 .222-.174.402-.409.402H51.4c-.225 0-.408-.187-.408-.402z" transform="translate(3.899 14.05) translate(12.937 2.445)"/>
                                <path fill="#D8D8D8" d="M52.709 3.789c0-.222.173-.402.408-.402h.084c.226 0 .409.186.409.402 0 .222-.174.402-.409.402h-.084c-.225 0-.408-.187-.408-.402z" transform="translate(3.899 14.05) translate(12.937 2.445)"/>
                            </g>
                            <g>
                                <path fill="#EAEBEF" d="M0 3.717c0-.23.184-.416.416-.416H1.3c.23 0 .416.193.416.416 0 .23-.184.415-.416.415H.416C.186 4.132 0 3.94 0 3.717zM3.188 3.683c0-.23.184-.415.416-.415h.885c.23 0 .416.192.416.415 0 .23-.184.416-.416.416h-.885c-.23 0-.416-.193-.416-.416zM6.438 3.683c0-.23.184-.415.416-.415h.885c.23 0 .416.192.416.415 0 .23-.184.416-.416.416h-.885c-.23 0-.416-.193-.416-.416z" transform="translate(3.899 14.05) translate(2.207 2.476)"/>
                                <path fill="#A65DCA" d="M0 1.47c0-.153.116-.278.274-.278h7.674c.15 0 .273.13.273.278 0 .154-.116.279-.273.279H.274C.122 1.749 0 1.619 0 1.47z" transform="translate(3.899 14.05) translate(2.207 2.476)"/>
                                <path fill="#EAEBEF" d="M0 .168C0 .075.081 0 .165 0H7.07c.091 0 .165.078.165.168 0 .093-.081.168-.165.168H.165C.074.336 0 .258 0 .168z" transform="translate(3.899 14.05) translate(2.207 2.476)"/>
                            </g>
                        </g>
                        <g fill-rule="nonzero" transform="translate(3.899 14.05) translate(65.581 1.378)">
                            <circle cx="3.249" cy="3.249" r="3.249" fill="#6C54B5"/>
                            <path fill="#FFF" d="M2.26 3.83c-.009.074-.02.148-.03.22l-.035.253.022-.002.446-.06c.014-.002.029 0 .041.007.415.225.924.171 1.283-.135.358-.306.49-.8.334-1.244-.116-.328-.375-.585-.704-.697-.33-.112-.692-.067-.983.123-.311.2-.483.492-.518.86-.02.223.028.447.137.642.006.01.008.022.008.034zm1.453-.712c.073 0 .131.06.13.132 0 .072-.058.13-.13.13-.073 0-.131-.058-.131-.13 0-.035.014-.069.038-.093.025-.025.059-.039.093-.039zm-.463 0c.073 0 .131.06.131.131 0 .073-.058.131-.13.131-.073 0-.132-.058-.132-.13 0-.073.06-.131.131-.132zm-.46 0c.072 0 .13.06.13.132 0 .072-.059.13-.13.13-.073 0-.132-.058-.132-.13 0-.035.014-.069.039-.093.024-.025.058-.039.093-.039z"/>
                        </g>
                    </g>
                </g>
                <g filter="url(#prefix__d)" transform="rotate(-5 233.778 -185.086)">
                    <g>
                        <path fill="#FFF" stroke="#989DAD" stroke-width=".5" d="M71.499.25H5.084C3.747.25 2.54.792 1.665 1.667.79 2.544.25 3.756.25 5.094c0 1.336.542 2.547 1.417 3.425.875.876 2.083 1.42 3.417 1.42H71.5c1.346 0 2.562-.55 3.437-1.465.863-.902 1.393-2.159 1.392-3.59-.055-1.289-.614-2.45-1.486-3.287C73.974.763 72.796.25 71.499.25z" transform="translate(4.332 31.224)"/>
                        <g>
                            <path fill="#EAEBEF" d="M0 .964C0 .824.12.71.253.71h18.409c.14 0 .253.118.253.254 0 .141-.12.255-.253.255H.253C.113 1.219 0 1.101 0 .964z" transform="translate(4.332 31.224) translate(14.375 2.007)"/>
                            <path fill="#EAEBEF" d="M.001 2.529c0-.14.113-.255.248-.255h9.514c.136 0 .247.118.247.255 0 .14-.112.255-.247.255H.249C.112 2.784 0 2.665 0 2.529z" opacity=".4" transform="translate(4.332 31.224) translate(14.375 2.007)"/>
                            <path fill="#EAEBEF" d="M.107 4.955c0-.188.153-.34.345-.34H7.8c.19 0 .346.158.346.34 0 .187-.154.34-.346.34H.452c-.19 0-.345-.158-.345-.34zM13.355 4.951c0-.187.149-.34.34-.34h5.325c.188 0 .34.158.34.34 0 .188-.148.34-.34.34h-5.325c-.188 0-.34-.157-.34-.34zM24.172 4.955c0-.188.148-.34.34-.34h5.325c.188 0 .34.158.34.34 0 .187-.148.34-.34.34h-5.325c-.188 0-.34-.158-.34-.34zM36.95 4.955c0-.188.144-.34.344-.34h4.316c.19 0 .344.158.344.34 0 .187-.144.34-.344.34h-4.316c-.19 0-.344-.158-.344-.34zM47.726 4.955c0-.188.152-.34.341-.34h3.321c.189 0 .341.158.341.34 0 .187-.152.34-.341.34h-3.32c-.19 0-.342-.158-.342-.34z" transform="translate(4.332 31.224) translate(14.375 2.007)"/>
                            <path fill="#D8D8D8" d="M56.658 4.92c0-.248.193-.448.453-.448h.094c.25 0 .454.208.454.447 0 .247-.193.447-.454.447h-.094c-.25 0-.453-.207-.453-.447zM58.565 4.92c0-.248.193-.448.454-.448h.094c.25 0 .453.208.453.447 0 .247-.193.447-.453.447h-.094c-.25 0-.454-.207-.454-.447z" transform="translate(4.332 31.224) translate(14.375 2.007)"/>
                        </g>
                        <g>
                            <path fill="#EAEBEF" d="M0 4.13c0-.255.204-.462.462-.462h.984c.255 0 .462.214.462.462 0 .255-.204.461-.462.461H.462C.207 4.591 0 4.377 0 4.13zM3.542 4.092c0-.255.205-.461.462-.461h.984c.255 0 .462.214.462.461 0 .256-.204.462-.462.462h-.984c-.255 0-.462-.214-.462-.462zM7.153 4.092c0-.255.205-.461.462-.461H8.6c.255 0 .462.214.462.461 0 .256-.204.462-.462.462h-.984c-.255 0-.462-.214-.462-.462z" transform="translate(4.332 31.224) translate(2.452 2.75)"/>
                            <path fill="#F32402" d="M0 1.634c0-.171.13-.31.304-.31H8.83c.168 0 .304.144.304.31 0 .17-.13.309-.304.309H.304c-.168 0-.304-.144-.304-.31z" transform="translate(4.332 31.224) translate(2.452 2.75)"/>
                            <path fill="#EAEBEF" d="M0 .187C0 .084.09 0 .183 0h7.673c.1 0 .183.087.183.187 0 .103-.09.187-.183.187H.183C.082.374 0 .287 0 .187z" transform="translate(4.332 31.224) translate(2.452 2.75)"/>
                        </g>
                        <g transform="translate(4.332 31.224) translate(72.917 1.624)">
                            <circle cx="3.61" cy="3.61" r="3.61" fill="#4967AD" fill-rule="nonzero"/>
                            <path fill="#FFF" d="M2.486 2.347c-.037 0-.073.014-.099.04-.026.027-.04.062-.04.1v2.246c0 .077.062.14.14.14h1.208v-.979h-.329v-.381h.33V3.23c0-.325.2-.503.491-.503.138 0 .258.01.293.015v.34l-.2.002c-.16 0-.19.074-.19.184v.244h.377l-.05.381H4.09v.98h.643c.037 0 .073-.016.1-.042.025-.026.04-.062.04-.099V2.486c0-.037-.015-.073-.04-.099-.027-.026-.063-.04-.1-.04H2.486z"/>
                        </g>
                    </g>
                    <g>
                        <path fill="#FFF" stroke="#989DAD" stroke-width=".5" d="M71.499.25H5.084C3.747.25 2.54.792 1.665 1.667.79 2.544.25 3.756.25 5.094c0 1.336.542 2.547 1.417 3.425.875.876 2.083 1.42 3.417 1.42H71.5c1.346 0 2.562-.55 3.437-1.465.863-.902 1.393-2.159 1.392-3.59-.055-1.289-.614-2.45-1.486-3.287C73.974.763 72.796.25 71.499.25z" transform="translate(0 15.612)"/>
                        <g>
                            <path fill="#EAEBEF" d="M0 .262C0 .122.115.007.245.007h34.942c.136 0 .245.118.245.255 0 .14-.114.255-.245.255H.245C.11.517 0 .399 0 .262z" transform="translate(0 15.612) translate(14.375 2.71)"/>
                            <path fill="#EAEBEF" d="M.001 1.827c0-.141.108-.255.254-.255h23.553c.14 0 .254.118.254.255 0 .14-.108.254-.254.254H.255c-.14 0-.254-.118-.254-.254z" opacity=".4" transform="translate(0 15.612) translate(14.375 2.71)"/>
                            <path fill="#EAEBEF" d="M.107 4.252c0-.187.153-.34.345-.34H7.8c.19 0 .346.158.346.34 0 .188-.154.34-.346.34H.452c-.19 0-.345-.158-.345-.34zM13.355 4.25c0-.188.149-.34.34-.34h5.325c.188 0 .34.157.34.34 0 .187-.148.339-.34.339h-5.325c-.188 0-.34-.158-.34-.34zM24.172 4.252c0-.187.148-.34.34-.34h5.325c.188 0 .34.158.34.34 0 .188-.148.34-.34.34h-5.325c-.188 0-.34-.158-.34-.34zM36.95 4.252c0-.187.144-.34.344-.34h4.316c.19 0 .344.158.344.34 0 .188-.144.34-.344.34h-4.316c-.19 0-.344-.158-.344-.34zM47.726 4.252c0-.187.152-.34.341-.34h3.321c.189 0 .341.158.341.34 0 .188-.152.34-.341.34h-3.32c-.19 0-.342-.158-.342-.34zM56.658 4.217c0-.247.193-.447.453-.447h.094c.25 0 .454.207.454.447 0 .247-.193.447-.454.447h-.094c-.25 0-.453-.208-.453-.447z" transform="translate(0 15.612) translate(14.375 2.71)"/>
                            <path fill="#D8D8D8" d="M58.565 4.217c0-.247.193-.447.454-.447h.094c.25 0 .453.207.453.447 0 .247-.193.447-.453.447h-.094c-.25 0-.454-.208-.454-.447z" transform="translate(0 15.612) translate(14.375 2.71)"/>
                        </g>
                        <g>
                            <path fill="#EAEBEF" d="M0 4.13c0-.255.204-.462.462-.462h.984c.255 0 .462.214.462.462 0 .255-.204.461-.462.461H.462C.207 4.591 0 4.377 0 4.13zM3.542 4.092c0-.255.205-.461.462-.461h.984c.255 0 .462.214.462.461 0 .256-.204.462-.462.462h-.984c-.255 0-.462-.214-.462-.462zM7.153 4.092c0-.255.205-.461.462-.461H8.6c.255 0 .462.214.462.461 0 .256-.204.462-.462.462h-.984c-.255 0-.462-.214-.462-.462z" transform="translate(0 15.612) translate(2.452 2.75)"/>
                            <path fill="#FF7A5B" d="M0 1.634c0-.171.13-.31.304-.31H8.83c.168 0 .304.144.304.31 0 .17-.13.309-.304.309H.304c-.168 0-.304-.144-.304-.31z" transform="translate(0 15.612) translate(2.452 2.75)"/>
                            <path fill="#EAEBEF" d="M0 .187C0 .084.09 0 .183 0h7.673c.1 0 .183.087.183.187 0 .103-.09.187-.183.187H.183C.082.374 0 .287 0 .187z" transform="translate(0 15.612) translate(2.452 2.75)"/>
                        </g>
                        <g fill-rule="nonzero" transform="translate(0 15.612) translate(72.917 1.624)">
                            <circle cx="3.61" cy="3.61" r="3.61" fill="#4BA0EC"/>
                            <path fill="#FFF" d="M4.97 2.974c-.024 1.09-.719 1.85-1.773 1.897-.432.023-.744-.119-1.031-.285.311.048.719-.071.935-.26-.312-.024-.504-.19-.6-.451.096.024.192 0 .264 0-.288-.095-.48-.26-.503-.64.072.047.168.071.263.071-.215-.118-.36-.569-.191-.853.311.332.695.616 1.318.664-.168-.664.743-1.02 1.103-.57.168-.023.287-.094.407-.142-.048.166-.144.261-.263.356.12-.024.24-.047.335-.095-.024.119-.144.214-.264.308z"/>
                        </g>
                    </g>
                    <g>
                        <path fill="#FFF" stroke="#989DAD" stroke-width=".5" d="M71.499.25H5.084C3.747.25 2.54.792 1.665 1.667.79 2.544.25 3.756.25 5.094c0 1.336.542 2.547 1.417 3.425.875.876 2.083 1.42 3.417 1.42H71.5c1.346 0 2.562-.55 3.437-1.465.863-.902 1.393-2.159 1.392-3.59-.055-1.289-.614-2.45-1.486-3.287C73.974.763 72.796.25 71.499.25z" transform="translate(4.332)"/>
                        <g fill="#EAEBEF">
                            <path d="M0 .255C0 .114.115 0 .257 0h39.692c.142 0 .257.118.257.255 0 .14-.116.254-.257.254H.257C.115.51 0 .391 0 .255z" transform="translate(4.332) translate(14.375 2.717)"/>
                            <path d="M.001 1.82c0-.141.108-.255.252-.255h16.362c.14 0 .252.118.252.254 0 .14-.108.255-.252.255H.253C.114 2.074 0 1.956 0 1.819z" opacity=".4" transform="translate(4.332) translate(14.375 2.717)"/>
                            <path d="M.107 4.245c0-.187.153-.34.345-.34H7.8c.19 0 .346.158.346.34 0 .188-.154.34-.346.34H.452c-.19 0-.345-.158-.345-.34zM13.355 4.242c0-.188.149-.34.34-.34h5.325c.188 0 .34.158.34.34 0 .187-.148.34-.34.34h-5.325c-.188 0-.34-.158-.34-.34zM24.172 4.245c0-.187.148-.34.34-.34h5.325c.188 0 .34.158.34.34 0 .188-.148.34-.34.34h-5.325c-.188 0-.34-.158-.34-.34zM36.95 4.245c0-.187.144-.34.344-.34h4.316c.19 0 .344.158.344.34 0 .188-.144.34-.344.34h-4.316c-.19 0-.344-.158-.344-.34zM47.726 4.245c0-.187.152-.34.341-.34h3.321c.189 0 .341.158.341.34 0 .188-.152.34-.341.34h-3.32c-.19 0-.342-.158-.342-.34zM56.658 4.21c0-.247.193-.447.453-.447h.094c.25 0 .454.207.454.447 0 .246-.193.446-.454.446h-.094c-.25 0-.453-.207-.453-.446zM58.565 4.21c0-.247.193-.447.454-.447h.094c.25 0 .453.207.453.447 0 .246-.193.446-.453.446h-.094c-.25 0-.454-.207-.454-.446z" transform="translate(4.332) translate(14.375 2.717)"/>
                        </g>
                        <g>
                            <path fill="#EAEBEF" d="M0 4.13c0-.255.204-.462.462-.462h.984c.255 0 .462.214.462.462 0 .255-.204.461-.462.461H.462C.207 4.591 0 4.377 0 4.13zM3.542 4.092c0-.255.205-.461.462-.461h.984c.255 0 .462.214.462.461 0 .256-.204.462-.462.462h-.984c-.255 0-.462-.214-.462-.462zM7.153 4.092c0-.255.205-.461.462-.461H8.6c.255 0 .462.214.462.461 0 .256-.204.462-.462.462h-.984c-.255 0-.462-.214-.462-.462z" transform="translate(4.332) translate(2.452 2.75)"/>
                            <path fill="#48B8B8" d="M0 1.634c0-.171.13-.31.304-.31H8.83c.168 0 .304.144.304.31 0 .17-.13.309-.304.309H.304c-.168 0-.304-.144-.304-.31z" transform="translate(4.332) translate(2.452 2.75)"/>
                            <path fill="#EAEBEF" d="M0 .187C0 .084.09 0 .183 0h7.673c.1 0 .183.087.183.187 0 .103-.09.187-.183.187H.183C.082.374 0 .287 0 .187z" transform="translate(4.332) translate(2.452 2.75)"/>
                        </g>
                        <g fill-rule="nonzero" transform="translate(4.332) translate(73.097 1.624)">
                            <circle cx="3.61" cy="3.61" r="3.61" fill="#F16631"/>
                            <path fill="#FFF" d="M2.268 3.622c.06.153.142.285.254.416.719.825 1.654 1.241 2.268.89.284-.21.681-.503.262-.73-.427-.226-.674-.416-.808-.08-.12.307-.442.212-.704.03-.247-.168-.793-.665-.688-.855.067-.11.389-.27.284-.423-.045-.066-.18-.241-.367-.438-.194-.205-.501-.037-.583.452-.053.329.007.533.082.738z"/>
                        </g>
                    </g>
                </g>
            </g>
        </g>
    </g>
</svg>
