<svg xmlns="http://www.w3.org/2000/svg" xmlns:xlink="http://www.w3.org/1999/xlink" width="142" height="80" viewBox="0 0 142 80">
    <defs>
        <rect id="prefix__a" width="142" height="80" x="0" y="0" rx="8"/>
    </defs>
    <g fill="none" fill-rule="evenodd">
        <mask id="prefix__b" fill="#fff">
            <use xlink:href="#prefix__a"/>
        </mask>
        <use fill="#E6E9F4" xlink:href="#prefix__a"/>
        <g mask="url(#prefix__b)">
            <g fill-rule="nonzero">
                <g transform="translate(37 11) translate(7.445 13.117)">
                    <path fill="#263238" d="M56.684 42.564h-46.12c-.29.003-.569-.116-.767-.328-.199-.212-.3-.497-.278-.787l1.898-30.144c.056-.617.568-1.092 1.187-1.103h46.123c.29-.003.569.116.767.328.199.212.3.497.278.787l-1.9 30.145c-.057.616-.568 1.091-1.188 1.102z"/>
                    <path fill="#000" d="M56.684 42.564h-46.12c-.29.003-.569-.116-.767-.328-.199-.212-.3-.497-.278-.787l1.898-30.144c.056-.617.568-1.092 1.187-1.103h46.123c.29-.003.569.116.767.328.199.212.3.497.278.787l-1.9 30.145c-.057.616-.568 1.091-1.188 1.102z" opacity=".6"/>
                    <path fill="#000" d="M56.354 42.564H10.22c-.29.003-.569-.116-.767-.328-.199-.212-.3-.497-.277-.787l1.9-30.144c.056-.617.568-1.092 1.187-1.103h46.12c.29-.004.57.115.768.327.199.212.3.498.277.788l-1.9 30.145c-.056.61-.56 1.084-1.173 1.102zM56.284 42.943H1.404c-.516-.005-.99.289-1.215.753-.057.12-.048.261.024.373.072.111.196.178.329.176h56.592c.133.002.257-.065.329-.176.071-.112.08-.253.023-.373-.222-.461-.69-.754-1.202-.753z"/>
                    <path fill="#7B7B7B" d="M56.284 42.943h-7.805c-.516-.005-.99.289-1.214.753-.058.12-.049.261.023.373.072.111.196.178.329.176h9.507c.133.002.257-.065.329-.176.072-.112.08-.253.023-.373-.22-.458-.684-.75-1.192-.753z" opacity=".6"/>
                    <path fill="#407BFF" d="M51.443 43.895h-2.014c-.098 0-.177-.079-.177-.177 0-.098.079-.177.177-.177h2.014c.097 0 .177.08.177.177 0 .047-.019.092-.052.126-.033.033-.078.051-.125.051z"/>
                    <path fill="#FFF" d="M25.52 43.895h-2.014c-.048.003-.095-.014-.13-.046-.035-.033-.056-.078-.057-.126 0-.098.08-.177.177-.177h2.014c.098 0 .177.079.177.177-.002.092-.075.167-.167.172z" opacity=".7"/>
                    <rect width="1.61" height="1" x="52.067" y="43.541" fill="#407BFF" rx=".5"/>
                    <path fill="#FFF" d="M10.214 40.359l1.764-27.97c.017-.244.218-.432.461-.436h45.543c.113 0 .22.046.298.129.077.082.116.193.107.306l-1.763 27.963c-.018.243-.218.432-.462.435h-45.54c-.112.001-.219-.044-.296-.125-.077-.081-.118-.19-.112-.302z"/>
                    <path fill="#407BFF" d="M36.122 11.098L20.953 39.931H9.763c-.114.002-.223-.044-.3-.127-.078-.083-.118-.194-.109-.308l1.764-27.963c.019-.242.218-.43.461-.435h24.543zM49.407 11.098L34.238 39.931 30.701 39.931 45.87 11.098zM57.527 11.533l-1.763 27.963c-.018.243-.218.432-.462.435H38.056l15.17-28.833h3.886c.114-.003.225.043.304.126.08.082.12.195.111.31z" opacity=".1"/>
                    <path fill="#FFF" d="M35.59 11.123c-.013.182-.164.324-.347.328-.085 0-.167-.034-.226-.097-.059-.062-.088-.146-.082-.231.015-.183.166-.324.35-.326.084 0 .166.034.224.096.058.062.088.145.082.23z" opacity=".4"/>
                    <path fill="#263238" d="M28.065 4.423c-1.328 1.52-2.096 6.18-1.112 8.475.984 2.296-10.435 4.591-1.013 8.313 9.422 3.72 16.95-.596 14.224-4.455-2.725-3.86.294-10.285-2.861-11.903-2.852-1.472-6.575-3.48-9.238-.43z"/>
                    <path fill="#B65B52" d="M25.262 23.19c-.486 1.713-1.027 3.4-1.576 5.101-.55 1.7-1.12 3.381-1.725 5.07l-.243.636-.119.318-.034.097-.058.141c-.037.093-.092.195-.141.29-.239.432-.593.79-1.023 1.034-.392.21-.828.325-1.272.335-.625.001-1.243-.12-1.82-.36-.472-.19-.929-.416-1.367-.674-1.593-.979-3.053-2.159-4.344-3.51l1.047-1.237c.353.226.73.467 1.093.692.365.226.746.445 1.115.661.724.424 1.471.807 2.238 1.147.348.153.708.28 1.076.379.255.084.526.116.794.092.068-.012.053-.039 0-.017-.054.022-.117.085-.12.078-.002-.008 0 0 0-.015v-.012l.02-.063.093-.314.187-.631 1.484-5.101c.505-1.7 1.025-3.4 1.56-5.101l3.135.964z"/>
                    <path fill="#B55B52" d="M12.512 30.39L9.7 29.343l1.12 2.98s1.992.287 2.764-.76l-.629-.843c-.112-.15-.266-.265-.442-.33zM7.2 30.215L8.273 32.659 10.819 32.323 9.699 29.343z"/>
                    <path fill="#407BFF" d="M23.19 18.791c-1.292.33-2.186 5.64-2.186 5.64l3.559 2.43s3.4-5.359 2.417-6.778c-1.045-1.486-1.907-1.77-3.79-1.292z"/>
                    <path fill="#FFF" d="M23.19 18.791c-1.292.33-2.186 5.64-2.186 5.64l3.559 2.43s3.4-5.359 2.417-6.778c-1.045-1.486-1.907-1.77-3.79-1.292z" opacity=".5"/>
                    <path fill="#000" d="M23.076 20.722l2.76.654.264 2.7c-.468.955-.984 1.885-1.547 2.787l-2.16-1.458c.095-1.263.328-3.842.683-4.683z" opacity=".2"/>
                    <path fill="#407BFF" d="M23.19 18.791s-1.494.527 1.496 18.903h12.721c-.213-5.176-.218-8.368 2.255-18.993-1.785-.368-3.593-.606-5.412-.711-2.14-.102-3.887-.173-5.777 0-2.47.228-5.283.801-5.283.801z"/>
                    <path fill="#FFF" d="M23.19 18.791s-1.494.527 1.496 18.903h12.721c-.213-5.176-.218-8.368 2.255-18.993-1.785-.368-3.593-.606-5.412-.711-2.14-.102-3.887-.173-5.777 0-2.47.228-5.283.801-5.283.801z" opacity=".5"/>
                    <path fill="#000" d="M36.679 23.635l1.642 1.396c-.35 1.859-.586 3.401-.729 4.783-.325-1.38-1.108-5.123-.913-6.18z" opacity=".2"/>
                    <path fill="#B55B52" d="M33.686 11.487c-.364 1.858-.729 5.264.573 6.503 0 0-1.214 2.783-4.433 2.783-3.218 0-1.343-2.783-1.343-2.783 2.072-.486 2.019-2.034 1.657-3.476l3.546-3.027z"/>
                    <path fill="#FAFAFA" d="M33.844 17.295c-.304.62-1.29 2.038-4.047 2.54-.076.015-.154-.001-.218-.043-.518-.36-.836-1.12-.61-2 .03-.11-.005-.228-.09-.304-.086-.077-.207-.099-.313-.057-.212.09-.415.198-.608.323-.042.027-.076.065-.1.11-.2.38-1.017 2.234 1.446 3.378.039.018.081.028.124.03 1.445.028 4.006-.244 5.616-3.159.059-.107.048-.238-.027-.335-.216-.237-.467-.438-.745-.597-.071-.046-.158-.06-.24-.038-.08.022-.15.077-.188.152zM34.522 24.942l-3.28-.095c-.069 0-.135-.029-.181-.08-.047-.052-.069-.12-.061-.19l.031-.405c.019-.142.141-.247.284-.243l3.28.094c.069 0 .135.03.182.08.046.052.068.121.06.19l-.031.403c-.018.143-.14.25-.284.246z"/>
                    <path fill="#000" d="M32.24 12.721l-2.098 1.79c.09.336.15.679.177 1.025.792-.114 1.88-.971 1.966-1.812.046-.334.031-.674-.044-1.003z" opacity=".2"/>
                    <path fill="#B55B52" d="M36.135 7.975c-.586 3.053-.77 4.357-2.527 5.735-2.645 2.074-6.267.687-6.604-2.48-.304-2.85.707-7.363 3.886-8.199 1.418-.377 2.93.005 3.999 1.012 1.068 1.006 1.539 2.494 1.246 3.932z"/>
                    <path fill="#263238" d="M34.398 5.71c-.38 1.915-.469 4.456 1.292 4.456 1.761 0 3.124-2.983 1.613-5.308-1.51-2.324-2.684-.274-2.905.853z"/>
                    <path fill="#263238" d="M37.424 5.946c0 2.08-2.618 1.052-3.777.156-1.158-.897-1.226-.8-3.362-.802-2.135-.002-2.577-.148-3.21-1.175-.635-1.028-.579-1.7.852-1.485 1.43.217.226-1.24 1.292-2.05 1.066-.809 2.325-.605 3.78 1.242 1.455 1.846 4.425.512 4.425 4.114z"/>
                    <ellipse cx="35.551" cy="10.363" fill="#FFF" rx="1.773" ry="1.149" transform="rotate(-73.66 35.55 10.363)"/>
                    <path fill="#FFF" d="M31.784 13.037c-.563 0-1.121-.115-1.64-.335-.022-.01-.04-.028-.049-.051-.01-.023-.009-.048.001-.07.01-.023.028-.04.05-.049.022-.008.047-.008.069.002.987.422 2.103.428 3.095.014.967-.392 1.734-1.158 2.127-2.125.73-2.084 1.472-4.69.613-6.315-.351-.64-.963-1.095-1.676-1.247-.05-.013-.078-.062-.066-.111.013-.049.063-.078.112-.066.763.163 1.417.652 1.79 1.339.894 1.676.148 4.33-.602 6.456-.412 1.013-1.215 1.817-2.228 2.23-.505.212-1.048.324-1.596.328z"/>
                    <path fill="#407BFF" d="M36.567 10.688c-.216.729-.712 1.244-1.108 1.127-.396-.117-.541-.809-.325-1.547.216-.739.712-1.244 1.107-1.127.396.116.542.818.326 1.547z" opacity=".6"/>
                    <path fill="#FFF" d="M29.484 12.119l.896.173c.183.035.302.211.267.394-.035.182-.212.301-.394.266l-.897-.173c-.182-.035-.302-.211-.266-.394.035-.182.211-.302.394-.266z"/>
                    <path fill="#A02724" d="M29.163 8.225s-.563 1.022-1.098 1.484c.29.35.87.282.87.282l.228-1.766z"/>
                    <path fill="#263238" d="M29.7 11.298h.022c.55.043 1.097-.124 1.53-.467.016-.01.024-.029.021-.047-.003-.019-.016-.034-.034-.04-.018-.005-.037 0-.05.014-.413.326-.933.485-1.457.445-.022-.001-.041.012-.049.032-.007.02 0 .042.017.055v.008zM32.479 7.025c.038.014.081.003.108-.028.026-.03.03-.075.01-.11-.234-.396-.646-.653-1.104-.688-.026-.001-.05.008-.069.025-.018.018-.029.042-.028.067 0 .052.04.095.092.097.395.033.75.257.95.6.009.017.023.03.04.037zM31.092 8.259c-.041.243-.209.432-.374.403-.165-.03-.263-.243-.219-.503.044-.26.21-.432.374-.403.165.03.258.26.219.503zM28.255 7.785c-.042.243-.21.43-.374.403-.165-.026-.263-.243-.219-.505.044-.262.209-.43.374-.403.165.027.262.25.219.505z"/>
                    <path fill="#263238" d="M28.107 7.307l-.574-.277s.229.524.574.277zM30.939 7.79l-.576-.277s.243.522.576.277zM27.293 6.092c.03.018.067.018.097 0 .304-.256.714-.346 1.098-.243.024.009.05.007.073-.004.023-.01.04-.03.048-.054.017-.05-.009-.103-.058-.122-.442-.123-.917-.025-1.275.263-.042.032-.05.09-.02.133.01.012.023.021.037.027z"/>
                    <path fill="#407BFF" d="M24.203 40.794s-.034-1.742.486-3.1h12.718s1.145 1.846 1.44 3.1H24.204z"/>
                    <path fill="#407BFF" d="M37.594 36.948l.102 1.137c.047.09-.06.18-.206.18H24.616c-.114 0-.211-.056-.219-.129l-.114-1.14c0-.077.093-.145.219-.145h12.874c.085-.012.17.026.218.097z"/>
                    <path fill="#FAFAFA" d="M37.594 36.948l.102 1.137c.047.09-.06.18-.206.18H24.616c-.114 0-.211-.056-.219-.129l-.114-1.14c0-.077.093-.145.219-.145h12.874c.085-.012.17.026.218.097z" opacity=".3"/>
                    <path fill="#407BFF" d="M35.865 38.38h.345c.07 0 .121-.037.117-.081l-.16-1.48c0-.043-.066-.077-.134-.077h-.345c-.07 0-.122.034-.117.078l.16 1.479c.005.053.066.08.134.08zM25.593 38.38h.344c.068 0 .122-.037.117-.081l-.163-1.48c0-.043-.063-.077-.133-.077h-.345c-.068 0-.122.034-.117.078l.163 1.479c.005.053.066.08.134.08zM30.73 38.38h.345c.068 0 .119-.037.114-.081l-.16-1.48c0-.043-.066-.077-.134-.077h-.345c-.068 0-.121.034-.116.078l.162 1.479c.01.053.064.08.134.08z"/>
                    <path fill="#B65B52" d="M40.747 22.291c.56 1.813 1.096 3.644 1.61 5.468l.776 2.738.386 1.358.097.335.049.167.012.04-.039-.059c-.062-.088-.137-.165-.224-.228-.187-.145-.414-.23-.65-.243-.178-.01-.355.025-.515.102-.175.092-.158.116-.144.1.04-.037.078-.077.112-.12.113-.144.218-.295.313-.451.216-.348.425-.744.627-1.147.41-.806.785-1.661 1.161-2.519.377-.857.729-1.732 1.09-2.609.363-.877.715-1.758 1.074-2.628l1.55.462c-.4 1.894-.872 3.755-1.457 5.61-.285.929-.603 1.85-.972 2.784-.19.464-.391.93-.641 1.417-.134.26-.283.514-.447.757-.103.152-.217.297-.34.433-.199.221-.438.403-.705.534-.267.13-.562.192-.86.18-.352-.018-.69-.143-.971-.357-.18-.135-.334-.3-.46-.486-.078-.12-.147-.246-.206-.376-.022-.051-.046-.11-.063-.156l-.046-.121-.063-.17-.126-.345c-.166-.455-.333-.909-.486-1.363-.311-.909-.622-1.815-.914-2.725-.595-1.82-1.149-3.644-1.666-5.488l3.138-.894z"/>
                    <path fill="#407BFF" d="M39.66 18.704c1.274.388 3.225 5.39 3.225 5.39l-4.943 3.532s-2.225-4.278-1.688-5.925c.556-1.715 1.953-3.442 3.405-2.997z"/>
                    <path fill="#FFF" d="M39.66 18.704c1.274.388 3.225 5.39 3.225 5.39l-4.943 3.532s-2.225-4.278-1.688-5.925c.556-1.715 1.953-3.442 3.405-2.997z" opacity=".5"/>
                    <path fill="#B55B52" d="M46.538 23.287l-.677-2.99 2.817 1.487s.034 2.011-1.103 2.645l-1.037-1.142z"/>
                    <path fill="#B55B52" d="M47.039 17.926L48.839 19.202 48.678 21.784 45.861 20.297z"/>
                </g>
                <g>
                    <path fill="#407BFF" d="M3.862 16.007h19.676c.759-.007 1.487.304 2.007.858s.783 1.3.728 2.057l-.544 8.905c-.126 1.625-1.466 2.887-3.095 2.915h-2.279l.93 3.058-4.452-3.058H2.96c-.76.008-1.488-.303-2.008-.857s-.783-1.3-.728-2.058l.545-8.905c.125-1.624 1.465-2.887 3.094-2.915z" transform="translate(37 11) translate(.158)"/>
                    <path fill="#FFF" d="M21.733 20.671H5.1c-.143.002-.28-.056-.38-.16-.097-.105-.148-.246-.137-.389.023-.306.276-.543.583-.549h16.641c.143 0 .28.058.378.162.097.104.147.245.137.387-.022.31-.28.55-.59.55zM11.885 23.924h-6.99c-.145.004-.284-.054-.384-.159-.1-.104-.15-.246-.139-.39.027-.306.282-.54.588-.542h6.99c.144-.002.282.057.38.161.098.104.149.245.138.388-.027.303-.278.537-.583.542zM17.858 27.176H4.695c-.143.002-.28-.056-.378-.16-.098-.105-.148-.246-.137-.389.023-.305.275-.543.58-.549h13.166c.143 0 .28.058.378.162.098.104.148.245.137.387-.023.306-.276.544-.583.55zM17.003 23.924h-2.752c-.143 0-.28-.058-.377-.162-.098-.104-.148-.245-.138-.387.028-.308.287-.543.595-.542h2.75c.143 0 .28.058.378.162.097.104.147.245.137.387-.026.307-.284.543-.593.542z" transform="translate(37 11) translate(.158)"/>
                    <path fill="#407BFF" d="M31.257 0H20.53c-1.268.02-2.313 1.003-2.407 2.269l-.425 6.93c-.043.59.163 1.17.568 1.601.405.431.971.673 1.562.668h1.774l-1.016 2.378 3.756-2.378h6.213c1.269-.02 2.313-1.004 2.407-2.27l.425-6.93c.043-.589-.163-1.17-.567-1.6-.405-.432-.972-.674-1.563-.668z" transform="translate(37 11) translate(.158)"/>
                    <path fill="#FAFAFA" d="M31.257 0H20.53c-1.268.02-2.313 1.003-2.407 2.269l-.425 6.93c-.043.59.163 1.17.568 1.601.405.431.971.673 1.562.668h1.774l-1.016 2.378 3.756-2.378h6.213c1.269-.02 2.313-1.004 2.407-2.27l.425-6.93c.043-.589-.163-1.17-.567-1.6-.405-.432-.972-.674-1.563-.668z" opacity=".5" transform="translate(37 11) translate(.158)"/>
                    <path fill="#FFF" d="M26.086 6.867c-.076.315-.357.537-.68.54h-.63c0-.183.012-.292.015-.331.01-.35.098-.693.26-1.003.23-.346.52-.645.86-.885.27-.195.525-.41.762-.643.127-.15.202-.337.214-.532.02-.261-.084-.516-.28-.69-.234-.204-.539-.307-.85-.29-.325-.008-.644.098-.898.302-.15.125-.275.28-.364.454-.131.265-.411.421-.705.394-.21-.026-.39-.157-.481-.348-.09-.19-.078-.414.034-.592.146-.247.334-.465.556-.646.528-.422 1.189-.64 1.864-.615.794 0 1.41.209 1.855.622.422.363.65.902.615 1.457-.022.313-.13.613-.313.868-.34.42-.734.793-1.171 1.11-.227.158-.423.356-.578.585-.04.077-.068.159-.085.243zM24.699 8.61v-.075c.025-.365.326-.65.692-.654h.075c.17-.002.334.067.45.192.117.124.176.292.162.462v.075c-.025.365-.326.65-.692.653h-.075c-.17.002-.334-.067-.45-.192-.116-.124-.175-.291-.162-.461z" transform="translate(37 11) translate(.158)"/>
                </g>
            </g>
        </g>
    </g>
</svg>
