<svg xmlns="http://www.w3.org/2000/svg" width="20" height="20" viewBox="0 0 20 20">
    <g fill="none" fill-rule="evenodd">
        <path d="M0 0L20 0 20 20 0 20z"/>
        <g fill-rule="nonzero">
            <path fill="#00B388" d="M13.532.387C12.519.153 10.855 0 8.974 0 7.094 0 5.43.153 4.417.387 2.4.812.81 2.406.386 4.43.152 5.445 0 7.114 0 9c0 1.886.152 3.555.386 4.57.424 2.024 2.013 3.618 4.031 4.043 1.012.234 2.676.387 4.557.387 1.881 0 3.545-.153 4.558-.387 2.018-.425 3.607-2.019 4.03-4.043.234-1.015.387-2.684.387-4.57 0-1.886-.153-3.555-.386-4.57C17.139 2.406 15.55.812 13.532.387z" transform="translate(1 1)"/>
            <path fill="#FFF" d="M11.13 13.817c-.17-.406-.53-.712-.97-.805-.264-.06-.697-.1-1.186-.1s-.921.04-1.185.1c-.436.092-.796.394-.967.797-.06.139-.203.224-.354.21l-.097-.009c-.703-.07-1.257-.168-1.578-.283h-.002c-.216-.082-.37-.29-.37-.535l.001-.018.002-.03v-.007l.002-.019c.055-.735.5-2.454 1.164-4.417.76-2.244 1.554-4.061 1.912-4.415.057-.06.123-.11.196-.149.028-.016.064-.031.107-.046l.004-.001c.235-.08.669-.134 1.165-.134.497 0 .93.054 1.166.134h.003c.043.016.08.031.108.047.073.039.139.089.195.148.36.355 1.153 2.172 1.913 4.416.664 1.963 1.11 3.682 1.164 4.417l.001.019v.006l.002.03v.019c0 .244-.153.453-.368.534l-.002.001c-.321.115-.874.213-1.577.283l-.11.01c-.145.014-.282-.069-.338-.203z" transform="translate(1 1)"/>
        </g>
    </g>
</svg>
