<?xml version="1.0" encoding="UTF-8"?>
<svg width="20px" height="20px" viewBox="0 0 20 20" version="1.1" xmlns="http://www.w3.org/2000/svg" xmlns:xlink="http://www.w3.org/1999/xlink">
    <title>Enterprise</title>
    <g id="Solution-for-Helpdesk" stroke="none" stroke-width="1" fill="none" fill-rule="evenodd">
        <g id="Help-Desk-_Solutions" transform="translate(-1262.000000, -220.000000)">
            <g id="Enterprise" transform="translate(1262.000000, 220.000000)">
                <polygon id="Path-3" points="0 0 20 0 20 20 0 20"></polygon>
                <path d="M13.1111111,2 L13.1111111,19 L2,19 L2,2 L13.1111111,2 Z M18,6.25 L18,19 L14,19 L14,6.25 L18,6.25 Z M8.66666667,14.2222222 L6.44444444,14.2222222 L6.44444444,16.4444444 L8.66666667,16.4444444 L8.66666667,14.2222222 Z M8.66666667,9.77777778 L6.44444444,9.77777778 L6.44444444,12 L8.66666667,12 L8.66666667,9.77777778 Z M8.66666667,5.33333333 L6.44444444,5.33333333 L6.44444444,7.55555556 L8.66666667,7.55555556 L8.66666667,5.33333333 Z M17,3 L17,5 L15,5 L15,3 L17,3 Z" id="Combined-Shape" fill="#6B58E1" fill-rule="nonzero"></path>
            </g>
        </g>
    </g>
</svg>