<svg xmlns="http://www.w3.org/2000/svg" width="20" height="20" viewBox="0 0 20 20">
    <g fill="none" fill-rule="evenodd">
        <path d="M0 0L20 0 20 20 0 20z"/>
        <g fill-rule="nonzero">
            <path fill="#FFC300" d="M7.924 17.292L0.013 11.368 0.013 8.408 4.568 9.443 7.928 14.155 11.282 9.443 15.838 8.408 15.838 8.408 15.839 8.408 15.839 11.368z" transform="translate(1.667 1.333)"/>
            <path fill="#FF8D00" d="M.013 1.518v6.89l7.912-4.484S1.997.447 1.49.242C.537-.148.013-.206.013 1.518z" transform="translate(1.667 1.333)"/>
            <path fill="#FF4F00" d="M14.361.242c-.507.205-6.418 3.671-6.418 3.671L.013 8.408 4.57 9.443l3.355 4.712 3.362-4.712 4.553-1.035v-6.89c0-1.724-.525-1.666-1.478-1.276z" transform="translate(1.667 1.333)"/>
        </g>
    </g>
</svg>
