<svg xmlns="http://www.w3.org/2000/svg" width="20" height="20" viewBox="0 0 20 20">
    <g fill="none" fill-rule="evenodd">
        <path d="M0 0L20 0 20 20 0 20z"/>
        <path fill="#139196" fill-rule="nonzero" d="M16.736 8.75l1.002.6c.125.076.202.212.202.358 0 .147-.077.283-.203.358L10 14.708l-7.737-4.642c-.126-.075-.203-.211-.203-.358 0-.146.077-.282.203-.357l1.001-.601L10 12.792l6.736-4.042zm0 3.917l1.002.6c.125.076.202.211.202.358s-.077.282-.203.357l-7.308 4.386c-.264.158-.594.158-.858 0l-7.308-4.385c-.126-.076-.203-.211-.203-.358s.077-.282.203-.357l1.001-.601L10 16.708l6.736-4.041zM10.428 1.09l7.31 4.385c.125.075.202.21.202.357s-.077.283-.203.358L10 10.833 2.263 6.191c-.126-.075-.203-.211-.203-.358 0-.146.077-.282.203-.357L9.57 1.09c.264-.159.594-.159.858 0z"/>
    </g>
</svg>
