<svg xmlns="http://www.w3.org/2000/svg" xmlns:xlink="http://www.w3.org/1999/xlink" width="20" height="20" viewBox="0 0 20 20">
    <defs>
        <path id="prefix__a" d="M0 0.037L19.939 0.037 19.939 13.978 0 13.978z"/>
    </defs>
    <g fill="none" fill-rule="evenodd">
        <path d="M0 0L20 0 20 20 0 20z"/>
        <g transform="translate(0 3.037)">
            <mask id="prefix__b" fill="#fff">
                <use xlink:href="#prefix__a"/>
            </mask>
            <path fill="#009CDB" d="M8.297 1.557C8.94.887 9.836.473 10.826.473c1.316 0 2.464.733 3.076 1.821.531-.237 1.12-.369 1.738-.369 2.374 0 4.299 1.94 4.299 4.332s-1.925 4.332-4.299 4.332c-.29 0-.573-.03-.847-.085-.538.96-1.564 1.608-2.742 1.608-.493 0-.96-.114-1.375-.316-.546 1.283-1.818 2.182-3.3 2.182-1.544 0-2.86-.975-3.364-2.344-.22.047-.45.071-.684.071C1.49 11.705 0 10.201 0 8.346c0-1.243.67-2.329 1.664-2.91-.205-.47-.319-.99-.319-1.536C1.345 1.766 3.08.037 5.218.037c1.256 0 2.372.596 3.08 1.52" mask="url(#prefix__b)"/>
            <path fill="#FEFEFE" d="M2.888 7.266c-.013.033.004.04.008.046.038.027.076.046.114.068.204.108.396.14.596.14.41 0 .664-.218.664-.568v-.006c0-.324-.287-.441-.556-.526l-.035-.012c-.203-.065-.378-.122-.378-.256v-.006c0-.115.102-.199.26-.199.177 0 .386.059.52.133 0 0 .04.026.055-.013l.083-.223c.008-.022-.006-.038-.02-.046-.154-.094-.366-.157-.586-.157h-.04c-.375 0-.637.226-.637.55v.006c0 .342.289.452.559.53l.043.013c.197.06.367.112.367.25v.007c0 .127-.11.221-.288.221-.07 0-.29-.001-.527-.151-.029-.017-.045-.03-.068-.043-.011-.007-.04-.02-.053.019l-.081.223zM8.875 7.266c-.012.033.005.04.01.046.036.027.074.046.113.068.203.108.395.14.596.14.409 0 .663-.218.663-.568v-.006c0-.324-.287-.441-.556-.526l-.035-.012c-.202-.065-.377-.122-.377-.256v-.006c0-.115.102-.199.26-.199.177 0 .385.059.52.133 0 0 .04.026.054-.013l.083-.223c.008-.022-.005-.038-.02-.046-.153-.094-.366-.157-.585-.157H9.56c-.375 0-.636.226-.636.55v.006c0 .342.288.452.558.53l.044.013c.197.06.366.112.366.25v.007c0 .127-.11.221-.288.221-.069 0-.289-.001-.527-.151l-.067-.043c-.007-.004-.042-.018-.054.019l-.08.223zM12.963 6.581c0 .198-.037.354-.11.464-.072.109-.18.162-.332.162-.152 0-.26-.053-.33-.162-.072-.11-.109-.266-.109-.464 0-.197.037-.353.108-.462.071-.108.18-.16.331-.16.152 0 .26.052.333.16.072.11.109.265.109.462m.342-.366c-.034-.114-.086-.213-.156-.297-.07-.083-.158-.15-.262-.199-.104-.048-.228-.073-.366-.073-.139 0-.262.025-.366.073-.104.049-.193.116-.262.2-.07.083-.122.182-.156.296-.033.112-.05.236-.05.366s.017.254.05.367c.034.113.086.212.156.296.07.083.158.15.262.197.104.048.228.072.366.072.138 0 .261-.024.366-.072.104-.047.192-.114.262-.197s.122-.183.156-.296c.033-.113.05-.236.05-.367 0-.13-.017-.254-.05-.366M16.108 7.154c-.011-.033-.044-.02-.044-.02-.05.018-.102.036-.158.045-.057.009-.12.013-.187.013-.166 0-.297-.05-.39-.146-.095-.097-.148-.254-.148-.466.001-.193.048-.339.132-.45.083-.11.21-.166.378-.166.141 0 .249.016.361.052 0 0 .027.011.04-.024l.084-.233c.009-.026-.013-.037-.022-.04-.044-.017-.148-.046-.227-.058-.074-.01-.16-.017-.256-.017-.144 0-.272.025-.381.073-.109.049-.202.116-.275.2-.073.083-.13.183-.166.296-.037.112-.056.236-.056.367 0 .283.077.511.227.679.152.168.378.253.675.253.174 0 .354-.035.483-.086 0 0 .025-.012.014-.04l-.084-.232zM16.705 6.392c.017-.11.047-.201.094-.273.07-.108.178-.167.33-.167.152 0 .252.06.324.167.048.072.068.167.077.273h-.825zm1.15-.242c-.03-.109-.101-.22-.148-.27-.075-.08-.147-.136-.22-.167-.094-.04-.207-.067-.33-.067-.145 0-.276.024-.382.074-.107.05-.196.118-.266.203-.07.085-.123.185-.157.3-.033.113-.05.237-.05.368 0 .133.017.257.052.369.035.112.091.211.167.293.076.083.174.147.291.192.116.045.258.069.42.068.333 0 .51-.075.582-.115.012-.007.025-.02.01-.055l-.076-.212c-.012-.031-.044-.02-.044-.02-.083.031-.2.086-.474.086-.18 0-.312-.054-.395-.136-.086-.085-.128-.209-.135-.384h1.156s.03 0 .033-.03c.002-.012.04-.237-.034-.497zM7.45 6.392c.016-.11.046-.201.093-.273.071-.108.179-.167.33-.167.152 0 .252.06.325.167.047.072.068.167.076.273H7.45zM8.6 6.15c-.03-.109-.102-.22-.149-.27-.074-.08-.147-.136-.22-.167-.093-.04-.206-.067-.33-.067-.144 0-.275.024-.382.074-.106.05-.196.118-.266.203-.07.085-.123.185-.156.3-.034.113-.051.237-.051.368 0 .133.018.257.052.369.036.112.092.211.168.293.076.083.174.147.29.192.117.045.258.069.42.068.334 0 .51-.075.582-.115.013-.007.025-.02.01-.055l-.076-.212c-.011-.031-.043-.02-.043-.02-.083.031-.2.086-.475.086-.179 0-.312-.054-.395-.136-.085-.085-.127-.209-.134-.384H8.6s.03 0 .034-.03c.001-.012.04-.237-.035-.497zM4.952 7.148c-.046-.036-.052-.045-.067-.069-.023-.035-.035-.086-.035-.15 0-.101.034-.174.104-.223-.001 0 .1-.087.335-.084.165.002.314.027.314.027v.525s-.147.031-.313.041c-.235.014-.339-.068-.338-.067m.46-.812c-.047-.003-.108-.005-.18-.005-.1 0-.196.013-.285.037-.09.024-.172.062-.242.111-.07.05-.126.115-.167.19-.041.077-.062.167-.062.267 0 .102.018.191.053.263.035.073.086.134.15.181.065.047.144.081.236.102.09.02.194.031.306.031.119 0 .237-.01.351-.029.113-.02.252-.048.291-.056l.081-.02c.029-.008.026-.039.026-.039V6.314c0-.232-.062-.404-.184-.51-.121-.106-.3-.16-.53-.16-.087 0-.227.012-.31.029 0 0-.253.049-.357.13 0 0-.022.014-.01.046l.082.22c.01.028.038.018.038.018s.009-.003.019-.01c.222-.12.503-.117.503-.117.125 0 .221.026.286.075.063.048.095.121.095.275v.049c-.1-.014-.19-.023-.19-.023M14.733 5.742c.009-.026-.01-.04-.017-.042-.02-.007-.118-.028-.194-.033-.145-.009-.226.016-.298.048-.072.032-.151.084-.195.144v-.14c0-.02-.014-.036-.034-.036H13.7c-.02 0-.033.016-.033.035V7.44c0 .02.016.035.035.035h.304c.019 0 .035-.015.035-.035v-.86c0-.115.012-.23.038-.303.025-.072.059-.129.101-.17.042-.04.09-.07.143-.086.054-.016.113-.021.155-.021.06 0 .127.015.127.015.022.003.034-.011.042-.031l.087-.242"/>
            <path fill="#FEFEFE" d="M11.883 4.943c-.037-.01-.07-.018-.114-.027-.045-.008-.098-.012-.157-.012-.21 0-.374.06-.49.176-.115.115-.193.292-.232.523l-.014.079h-.263s-.032-.002-.038.033l-.043.24c-.003.023.006.038.037.037h.256l-.26 1.445c-.02.117-.043.212-.069.285-.025.071-.05.125-.08.164-.03.038-.058.066-.106.082-.04.013-.086.02-.136.02-.028 0-.065-.005-.093-.011-.027-.005-.041-.012-.062-.02 0 0-.03-.012-.042.018l-.086.235c-.008.023.004.04.018.046.034.012.06.02.106.031.064.015.118.016.17.016.105 0 .202-.015.283-.044.08-.03.151-.08.213-.149.068-.074.11-.152.15-.258.04-.105.075-.236.102-.388l.26-1.472h.381s.032.002.039-.033l.043-.24c.003-.023-.007-.038-.038-.037h-.37c.003-.009.02-.139.062-.26.018-.053.052-.095.08-.124.03-.028.062-.049.098-.06.036-.012.078-.018.124-.018.034 0 .069.004.095.01.035.007.05.011.059.014.037.011.042 0 .05-.018l.088-.242c.01-.026-.013-.037-.021-.04M6.72 7.44c0 .02-.014.035-.033.035H6.38c-.019 0-.033-.015-.033-.035V4.976c0-.019.014-.034.033-.034h.307c.02 0 .033.015.033.034V7.44z"/>
        </g>
    </g>
</svg>
