<svg xmlns="http://www.w3.org/2000/svg" width="20" height="20" viewBox="0 0 20 20">
    <g fill="none" fill-rule="evenodd">
        <path d="M0 0L20 0 20 20 0 20z"/>
        <g fill-rule="nonzero">
            <path fill="#36C5F0" d="M6.57.044c-.475 0-.931.19-1.267.527-.336.337-.525.793-.524 1.269 0 .476.188.932.524 1.269.336.336.792.526 1.268.526h1.792V1.84c0-.476-.188-.932-.524-1.269C7.503.234 7.046.045 6.57.044m0 4.789H1.792c-.476 0-.932.19-1.268.526C.188 5.696 0 6.152 0 6.628c0 .476.188.932.524 1.269.336.337.792.526 1.268.527h4.779c.475 0 .932-.19 1.268-.527.336-.337.524-.793.524-1.269 0-.476-.188-.932-.525-1.269-.336-.336-.792-.526-1.267-.526" transform="translate(1 1)"/>
            <path fill="#2EB67D" d="M17.92 6.628c0-.476-.188-.932-.524-1.269-.336-.336-.792-.526-1.268-.526s-.932.19-1.268.526c-.336.337-.524.793-.524 1.269v1.796h1.792c.476 0 .932-.19 1.268-.527.336-.337.525-.793.524-1.269m-4.779 0V1.84c0-.476-.188-.932-.524-1.269-.336-.337-.792-.526-1.268-.527-.475 0-.932.19-1.268.527-.336.337-.524.793-.524 1.269v4.788c0 .476.188.932.524 1.269.336.337.793.526 1.268.527.476 0 .932-.19 1.268-.527.336-.337.525-.793.524-1.269" transform="translate(1 1)"/>
            <path fill="#ECB22E" d="M11.35 18c.475 0 .931-.19 1.267-.527.336-.336.525-.793.524-1.269 0-.475-.188-.932-.524-1.268-.336-.337-.792-.527-1.268-.527H9.557v1.795c0 .476.188.933.524 1.27.336.336.793.526 1.268.526m0-4.788h4.779c.476 0 .932-.19 1.268-.527.336-.337.524-.793.524-1.269 0-.475-.188-.932-.524-1.269-.336-.336-.792-.526-1.268-.526h-4.779c-.475 0-.932.19-1.268.526-.336.337-.524.794-.524 1.27 0 .475.188.931.525 1.268.336.337.792.526 1.267.527" transform="translate(1 1)"/>
            <path fill="#E01E5A" d="M0 11.416c0 .476.188.932.524 1.27.336.336.792.525 1.268.526.476 0 .932-.19 1.268-.527.336-.337.524-.793.524-1.269V9.621H1.792c-.476 0-.932.19-1.268.526-.336.337-.525.794-.524 1.27m4.779 0v4.787c0 .476.188.933.524 1.27.336.336.792.526 1.268.526.475 0 .932-.19 1.268-.527.336-.336.524-.793.524-1.269v-4.787c0-.476-.188-.933-.524-1.27-.336-.336-.793-.526-1.268-.526-.476 0-.932.19-1.268.527-.336.336-.525.793-.524 1.269" transform="translate(1 1)"/>
        </g>
    </g>
</svg>
